<svg width="38" height="38" viewBox="0 0 38 38" fill="none" xmlns="http://www.w3.org/2000/svg">
<path d="M27.0155 12.4379C28.3272 12.4379 29.3905 11.4018 29.3905 10.1238C29.3905 8.84576 28.3272 7.80971 27.0155 7.80971C25.7038 7.80971 24.6405 8.84576 24.6405 10.1238C24.6405 11.4018 25.7038 12.4379 27.0155 12.4379Z" fill="#004C66"/>
<path d="M37.59 11.995C36.7974 10.0284 35.3439 7.19097 32.9206 4.84101C30.5059 2.49915 27.6246 1.12342 25.6327 0.381611C23.446 -0.432733 20.9611 0.0805615 19.3023 1.68922L13.4733 7.34211C11.7454 9.01773 11.2474 11.5961 12.234 13.7579C12.5399 14.4284 12.8727 15.0843 13.2282 15.7179L0.434772 28.1832C0.156378 28.4544 0 28.8223 0 29.2059V35.5697C0 36.3685 0.664552 37.016 1.48437 37.016H8.01559C8.83541 37.016 9.49996 36.3685 9.49996 35.5697V32.9663L12.1718 32.9663C12.9916 32.9663 13.6562 32.3188 13.6562 31.52V28.9167H16.3281C17.1479 28.9167 17.8124 28.2692 17.8124 27.4704C17.8124 26.6716 17.1479 26.0241 16.3281 26.0241H12.1718C11.352 26.0241 10.6875 26.6716 10.6875 27.4704V30.0737L8.01559 30.0737C7.19577 30.0737 6.53122 30.7212 6.53122 31.52V34.1234H2.96874V29.805L16.1317 16.9796C16.6154 16.5084 16.706 15.7763 16.3513 15.2066C15.8369 14.3805 15.3643 13.4977 14.9469 12.5827C14.4571 11.5094 14.7066 10.2273 15.5678 9.39218L21.3967 3.73936C22.2289 2.93239 23.4756 2.67502 24.5731 3.0836C26.2966 3.72547 28.7805 4.90696 30.8264 6.89115C32.8849 8.88734 34.138 11.3434 34.8268 13.0522C35.2566 14.1187 34.9954 15.3304 34.1614 16.1391L28.2621 21.8603C27.403 22.6933 26.1208 22.9368 24.9953 22.4808C24.067 22.1046 23.168 21.6577 22.3234 21.1525C21.6248 20.7347 20.7107 20.9479 20.2819 21.6287C19.8531 22.3094 20.0718 23.2001 20.7705 23.6179C21.7466 24.2016 22.7845 24.7176 23.8551 25.1515C26.0922 26.0583 28.6441 25.5709 30.3563 23.9105L36.2556 18.1894C37.9289 16.5667 38.4526 14.1353 37.59 11.995Z" fill="#004C66"/>
</svg>
