<svg width="38" height="38" viewBox="0 0 38 38" fill="none" xmlns="http://www.w3.org/2000/svg">
<path d="M5.56492 24.5649C7.63436 22.4956 10.0975 20.9636 12.785 20.0362C9.90664 18.0538 8.01562 14.736 8.01562 10.9844C8.01562 4.92761 12.9432 0 19 0C25.0568 0 29.9844 4.92761 29.9844 10.9844C29.9844 14.736 28.0934 18.0538 25.2149 20.0362C27.9024 20.9636 30.3656 22.4956 32.435 24.5649C36.0236 28.1536 38 32.9249 38 38H35.0312C35.0312 29.1603 27.8397 21.9688 19 21.9688C10.1603 21.9688 2.96875 29.1603 2.96875 38H0C0 32.9249 1.97637 28.1536 5.56492 24.5649ZM19 19C23.4198 19 27.0156 15.4042 27.0156 10.9844C27.0156 6.5645 23.4198 2.96875 19 2.96875C14.5802 2.96875 10.9844 6.5645 10.9844 10.9844C10.9844 15.4042 14.5802 19 19 19Z" fill="#004C66"/>
</svg>
